<svg viewBox="0 0 1834.4 839.8" xmlns="http://www.w3.org/2000/svg"><path d="m405 721.9h-68c17-9.8 32.9-23.7 47.1-37.9 11.1-11.1 20.8-23.2 29.2-36-30.1 20.2-64.6 33.3-101.4 37.1-7.9.8-15.7 1.2-23.5 1.2-59.5 0-116.3-23.4-158.9-65.9-76.3-76.3-87.2-195.6-28.2-283.4-12.6 8.3-24.5 17.9-35.4 28.9-42.5 42.4-65.9 98.9-65.9 159s23.4 116.6 65.9 159.1 99 67.9 159.1 67.9h180c8.3 0 15 6.7 15 15s-6.7 15-15 15h-90c-8.3 0-15 6.7-15 15s6.7 15 15 15h90c24.8 0 45-20.2 45-45s-20.2-45-45-45z"/><path d="m447.6 493.5c-.6-4.1-1-8.2-1.8-12.3-75.4-41.6-175.8-31.4-240.7 43.7 12.4 14.3 23.9 25.6 45.4 38.8 2.1-2.3 4.1-4.8 6.4-7 51.1-51.2 122.4-72.8 190.7-63.2z"/><path d="m162.3 440.3c4.8 21.2 12.9 41.6 24.4 60.1 58.5-63.8 141.7-86.3 221.4-66-27.5-21.4-60.1-35.1-95.8-39.4-54.5-6.7-108.6 10-150 45.3z"/><path d="m134.5 342.3c-61.5 79.2-51.8 188.8 16.2 256.8 41.7 41.7 99.4 62.1 158.1 56.1 36.2-3.7 70.1-17.6 98.5-39.4-18.1 4.6-36.5 7-55 7-57.6 0-115.2-22.1-159.1-66.1-50-50-74.7-124.5-62.9-195.9 1-6.3 2.7-12.4 4.2-18.5z"/><path d="m278 577.9s0 .1 0 0c53.9 22.4 115.7 19 167.8-9.6 2.8-14.2 4.2-28.7 4.2-43.4 0-.1 0-.2 0-.4-61.2-10.8-125.9 7.4-172 53.4z"/><path d="m384.1 365.8c-42.5-42.5-99-65.9-159.1-65.9-14.7 0-29.2 1.4-43.3 4.2-10.5 19-18.1 39.6-21.8 61.6-2.2 13.4-2.7 26.8-2.1 40 45.5-32.6 101.7-47.4 158.2-40.5 35.3 4.3 68.4 17.2 97.4 36.6-8.5-12.8-18.2-24.9-29.3-36z"/><path d="m753 545.9 88.7-149.1c14.6-24.3 21.9-41.6 21.9-51.8 0-9.3-3.9-17.8-11.6-25.6-7.8-7.7-21.6-11.6-41.5-11.6v-15.3h147.1v15.3c-20.4 2.9-36.8 10.5-49.3 22.7-12.5 12.3-28.5 34.6-48 66.9l-101 168.5v59.8c0 38.3 1.2 62.7 3.5 73.2s7.3 17.9 14.9 22.2 22.6 6.5 45 6.5v15.3h-191.9v-15.3h7.3c19.3 0 32.6-2.4 40-7.3s12.1-12.5 14.1-22.7 3-34.3 3-71.9v-55.4l-112.2-184.4c-22.8-37.2-38-59.4-45.5-66.6s-21-11-40.5-11.5v-15.3h182.6v15.3c-34.1 0-51.1 7.8-51.1 23.2 0 6.2 5.6 18.6 16.9 37.2z"/><path d="m1187.6 693h12.3c-2 37.9-20.6 56.8-55.8 56.8-15.1 0-27-4-35.7-12s-14.4-19.8-17.1-35.5c-22.1 15.7-42.3 27.6-60.6 35.5s-34.6 12-49 12c-18.4 0-34.2-5.3-47.5-15.9s-19.9-24.7-19.9-42.2c0-22.8 11.1-42.7 33.4-59.8 22.2-17 53-33.6 92.1-49.8l51.5-20.9v-13.3c0-18.8-1.2-32.4-3.7-40.8-2.4-8.4-8.7-15.9-18.9-22.6-10.2-6.6-23.6-10-40.2-10-33.2 0-51.7 11.1-55.4 33.2-3.5 22.6-12.8 33.9-27.9 33.9-13.5 0-20.3-6.4-20.3-19.3 0-12.6 9-26.2 26.9-40.7s45.8-21.7 83.7-21.7c28.1 0 49.9 4.4 65.4 13.3s25.7 18.9 30.7 30.2 7.5 28.6 7.5 51.8v109.9c0 25.7 1.3 42.2 4 49.5s8.4 11 17.3 11c14.6 0 23.7-10.9 27.2-32.6zm-96.3-116.2-36.2 14.6c-57.1 23.2-85.7 52.5-85.7 87.7 0 13.9 3.7 25.2 11 33.7s16.8 12.8 28.6 12.8c10.4 0 22.5-3.4 36.2-10.3s29.1-17.2 46.2-30.9v-107.6z"/><path d="m1320.1 529.3c7.5-19.7 19.8-36.2 36.7-49.5s33.5-19.9 49.6-19.9c14.6 0 26.1 4.5 34.5 13.6s12.6 18.4 12.6 27.9c0 6.4-2.2 12-6.5 16.6s-9.6 7-15.8 7c-11.1 0-19.5-8.2-25.2-24.6-4-11.1-10-16.6-17.9-16.6-9.5 0-20.9 6.5-34.2 19.4s-21.8 26.4-25.6 40.3-5.6 33.1-5.6 57.4v48.5c0 29 .4 47.3 1.2 54.8s3.9 13.3 9.5 17.3c5.5 4 15.4 6 29.6 6h9.3v15.3h-144.4v-15.3h7c13.3 0 22.7-1.8 28.4-5.5s9-8.8 10.1-15.4 1.7-25.7 1.7-57.1v-76.7c0-29.2-.4-47.5-1.2-55-.8-7.4-3.9-13.2-9.5-17.3-5.5-4.1-15.4-6.1-29.6-6.1h-7v-14.9c20.8-2.4 48-9 81.7-19.6 6.4 17.5 9.9 40.7 10.6 69.4z"/><path d="m1566.8 460h9c5.1 13.7 8 32.4 8.6 56.1 15.9-18.8 32.6-32.9 50.1-42.2s35.7-13.9 54.8-13.9c21.7 0 39.5 4.5 53.3 13.6s22.7 20.2 26.7 33.4 6 32.4 6 57.6v85c0 31.4.5 50.6 1.7 57.4 1.1 6.9 4.6 12 10.5 15.4s16.7 5.1 32.4 5.1v15.3h-139.1v-15.3h6.3c15.9 0 26.3-2.3 31.2-7 4.9-4.6 7.6-10.1 8.3-16.3s1-24.5 1-54.8v-87.7c0-21.5-1.1-36.8-3.2-46s-7.8-17.3-16.9-24.4c-9.2-7.1-20.9-10.6-35-10.6-16.2 0-31.6 4.8-46.3 14.4s-28.6 24.1-41.7 43.3v110.9c0 31.4.6 50.6 1.8 57.4 1.2 6.9 4.8 12 10.6 15.4 5.9 3.4 16.8 5.1 32.7 5.1v15.3h-137.5v-15.3c15.3 0 25.9-1.5 31.9-4.6s9.7-7.8 11.1-14.1 2.2-26.1 2.2-59.3v-81c0-31.7-.6-50.9-1.8-57.6-1.2-6.8-4.8-11.8-10.6-15.3-5.9-3.4-16.8-5.1-32.7-5.1v-15.3c24.2-2.3 49.1-7.4 74.6-14.9z"/><path d="m1155.8 202.9c-2.9.7-6.2 2.1-9.9 4.1s-6.4 4.5-8.2 7.4c-8.4 11.7-16.6 24-24.5 36.9-7.9 12.8-15.5 25.7-22.8 38.5h68.2c1.1.7 1.7 1.5 1.7 2.2s-.4 1.3-1.1 1.7c-2.9 0-7.3.1-13.2.3s-12.3.5-19.2.8c-7 .4-14.1.7-21.5 1.1-7.3.4-13.8.7-19.2 1.1-10.3 18.3-18.2 33.9-23.7 46.8-5.5 12.8-8.2 24-8.2 33.5 0 13.2 6.1 19.8 18.2 19.8 5.9 0 12.6-1.6 20.1-4.7s15.5-7.2 23.9-12.4c1.1-1.1 2.2-1 3.3.3s.7 2.3-1.1 3c-12.5 8.1-24 13.9-34.7 17.6-10.6 3.7-21.5 5.5-32.5 5.5-5.9 0-11-1.7-15.4-5.2s-6.6-9.4-6.6-17.9c0-7.3 3.3-18.2 9.9-32.5s16.3-31.9 29.2-52.8c-4.4.4-9.8.8-16.2 1.4-6.4.5-10.2.8-11.3.8-1.8 0-2.8-.7-2.8-2.2 1.5-2.6 3.8-5.1 7.1-7.7l28-.5c3.3-5.5 7-11.6 11-18.4s8.1-13.6 12.1-20.3c4-6.8 8.2-13.4 12.4-19.8s8-12.4 11.3-17.9c4-1.8 9.6-4.2 16.8-7.2 7.2-2.9 13.5-5.3 19-7.1.7 0 1.3.5 1.7 1.4.2.9-.3 1.7-1.8 2.4z"/><path d="m1495.2 41.2c0 5.9-.3 10.3-.8 13.2s-1.1 5-1.6 6c-.6 1.1-1.1 1.4-1.7.8-.6-.5-.8-1.2-.8-1.9 0-2.6-.6-6-1.9-10.5-1.3-4.4-3.8-8.7-7.7-12.9s-9.3-7.9-16.2-11c-7-3.1-15.9-4.7-26.9-4.7-9.5 0-19.3 1.4-29.4 4.1-10.1 2.8-21 8.1-32.7 15.9-11.7 7.9-24.3 18.8-37.7 32.7s-28 32-43.7 54.2c-15.8 22.2-32.9 49.1-51.4 80.8s-38.8 69.2-60.8 112.5c2.6-2.2 6.6-5.5 12.1-9.9s11.6-8.8 18.2-13.2 13-8.2 19.2-11.5 11.5-5 15.9-5c3.3 0 5 1.3 5 3.9 0 2.2-1.7 5.5-5 9.9-2.9 4.4-6.8 10.5-11.5 18.2-4.8 7.7-9.4 16-14 24.8s-8.5 17.4-11.8 25.8-5 15.2-5 20.4c0 5.9 1.5 10.3 4.4 13.2s7 4.4 12.1 4.4c8.4 0 20.3-5.5 35.8-16.5s33-29.7 52.8-56.1c.7-.7 1.5-1.1 2.2-1.1s1.1.7 1.1 2.2c-7 9.9-15.1 19.8-24.5 29.7s-18.9 18.9-28.6 27-19.4 14.6-29.2 19.5c-9.7 5-18.6 7.4-26.7 7.4-6.2 0-11.2-1.7-14.9-5.2s-5.5-8.3-5.5-14.6c0-5.9 2-13.4 6.1-22.5 4-9.2 8.5-18.4 13.5-27.8s9.4-18 13.5-25.9c4-7.9 6.1-13.5 6.1-16.8 0-1.8-.6-2.8-1.7-2.8-3.3 0-9.3 3.1-17.9 9.3s-19.3 18-32.2 35.2c-5.1 9.2-10.5 18.7-16 28.6s-10.3 18.7-14.3 26.4c-2.9 5.9-5.7 8.8-8.2 8.8-1.8 0-4.2-.5-7.1-1.4s-4.4-2.7-4.4-5.2c0-1.8.5-3.9 1.7-6.1 15.4-27.9 30.4-54.2 45.1-78.9 14.7-24.8 29.5-49 44.5-72.9 17.6-27.5 35.8-55.5 54.7-84.1s38.2-54.6 58-78.1 39.9-42.6 60.2-57.5c20.2-14.6 40.6-22 61.2-22 5.1 0 10.5.6 16 1.9s10.7 3.4 15.7 6.3 9 7.1 12.1 12.4c3 5.3 4.6 12.2 4.6 20.6z"/><path d="m1410.5 331.6c-8.8 11.4-18.9 22.2-30.2 32.5-11.4 10.3-21.8 18.5-31.3 24.8-7.3 4.8-14.9 8.4-22.5 11-7.7 2.6-14.7 3.8-20.9 3.8-2.2 0-4.8-.2-7.7-.5-2.9-.4-5.6-1.3-8-2.8s-4.4-3.4-6-5.8c-1.7-2.4-2.5-5.6-2.5-9.6 0-4.8 1.8-11.3 5.5-19.5s8-16.8 12.9-25.6c5-8.8 9.9-17.2 14.9-25.3s8.9-14.1 11.8-18.2c1.8-2.9 5-5.4 9.6-7.4s7.6-3 9.1-3c1.8 0 2.8.5 2.8 1.7 0 .7-.3 1.8-.8 3.3-.6 1.5-1.2 2.6-1.9 3.3-4.8 7.3-9.6 15.4-14.6 24.2s-9.4 17.3-13.5 25.6c-4 8.2-7.2 15.9-9.6 22.8-2.4 7-3.6 12.5-3.6 16.5 0 4.4 1.2 7.6 3.6 9.6s5.6 3 9.6 3c7.3 0 15.4-2.5 24.2-7.4s17.5-10.9 26.1-17.9 16.6-14.3 23.9-22 13-14.3 17-19.8c1.8-1.8 2.8-2.3 3-1.4.1.9-.2 2.3-.9 4.1zm-24.8-122.6c0 4.4-1.9 8.8-5.8 13.2s-8.2 6.6-12.9 6.6c-4.4 0-6.6-2.2-6.6-6.6 0-4.8 1.7-9.3 5.2-13.8 3.5-4.4 7.8-6.6 12.9-6.6 4.8 0 7.2 2.4 7.2 7.2z"/><path d="m1461.6 303c-1.1 1.8-2 2-2.8.6-2.2-4.8-6.8-7.2-13.8-7.2-5.1 0-10.3 1.5-15.4 4.4s-7.7 7.3-7.7 13.2c0 2.9.9 5.9 2.8 8.8 1.8 2.9 4.4 6.8 7.7 11.5 2.9 4.4 5.7 8.8 8.2 13.2 2.6 4.4 3.9 9 3.9 13.8 0 9.5-2.2 17.3-6.6 23.4-4.4 6-9.6 10.9-15.7 14.6s-12.2 6.1-18.4 7.4-11.2 1.9-14.8 1.9c-22.4 0-34.7-7.5-36.8-22.5 1.8-1.1 3.9-2.5 6.3-4.1 2.4-1.7 4.1-3.2 5.2-4.7.7 0 1.3.7 1.6 2.2 1.8 6.6 5.3 12.3 10.5 17 5.1 4.8 11.2 7.2 18.1 7.2 2.9 0 6.4-.3 10.5-.8 4-.5 7.8-1.8 11.3-3.8s6.5-4.9 9.1-8.5c2.6-3.7 3.8-8.6 3.8-14.8 0-4.8-.9-9.2-2.8-13.2-1.8-4-3.8-7.7-6-11-2.2-3.7-4.4-7.3-6.6-11s-3.3-7.7-3.3-12.1 1.6-9.2 4.7-14.3 7.1-9.8 11.8-14c4.8-4.2 10-7.8 15.7-10.7s11.3-4.4 16.8-4.4c5.9 0 8.8 1.8 8.8 5.5-1.1 1.8-2.2 3.9-3.3 6.3-1.1 2.2-2 4.3-2.8 6.1z"/><path d="m1718.5 331.6c-8.8 11.4-18.9 22.2-30.2 32.5-11.4 10.3-21.8 18.5-31.3 24.8-7.3 4.8-14.8 8.4-22.6 11-7.7 2.6-14.7 3.8-20.9 3.8-2.2 0-4.8-.2-7.7-.5-2.9-.4-5.6-1.3-8-2.8s-4.4-3.4-6.1-5.8c-1.6-2.4-2.5-5.6-2.5-9.6 0-4.8 1.8-11.3 5.5-19.5s8-16.8 12.9-25.6 9.9-17.2 14.8-25.3 8.9-14.1 11.8-18.2c1.8-2.9 5-5.4 9.6-7.4s7.6-3 9.1-3c1.8 0 2.8.5 2.8 1.7 0 .7-.3 1.8-.8 3.3s-1.2 2.6-1.9 3.3c-4.8 7.3-9.6 15.4-14.6 24.2-4.9 8.8-9.4 17.3-13.5 25.6-4 8.2-7.2 15.9-9.6 22.8-2.4 7-3.6 12.5-3.6 16.5 0 4.4 1.2 7.6 3.6 9.6s5.6 3 9.6 3c7.3 0 15.4-2.5 24.2-7.4s17.5-10.9 26.1-17.9 16.6-14.3 23.9-22 13-14.3 17.1-19.8c1.8-1.8 2.8-2.3 3-1.4.3.9 0 2.3-.7 4.1zm-24.8-122.6c0 4.4-1.9 8.8-5.8 13.2-3.8 4.4-8.2 6.6-12.9 6.6-4.4 0-6.6-2.2-6.6-6.6 0-4.8 1.7-9.3 5.2-13.8 3.5-4.4 7.8-6.6 12.9-6.6 4.8 0 7.2 2.4 7.2 7.2z"/><path d="m1769.6 303c-1.1 1.8-2 2-2.8.6-2.2-4.8-6.8-7.2-13.8-7.2-5.1 0-10.3 1.5-15.4 4.4s-7.7 7.3-7.7 13.2c0 2.9.9 5.9 2.8 8.8 1.8 2.9 4.4 6.8 7.7 11.5 2.9 4.4 5.7 8.8 8.2 13.2 2.6 4.4 3.8 9 3.8 13.8 0 9.5-2.2 17.3-6.6 23.4-4.4 6-9.6 10.9-15.7 14.6-6 3.7-12.2 6.1-18.4 7.4s-11.2 1.9-14.9 1.9c-22.4 0-34.6-7.5-36.8-22.5 1.8-1.1 3.9-2.5 6.3-4.1 2.4-1.7 4.1-3.2 5.2-4.7.7 0 1.3.7 1.7 2.2 1.8 6.6 5.3 12.3 10.4 17 5.1 4.8 11.2 7.2 18.2 7.2 2.9 0 6.4-.3 10.5-.8 4-.5 7.8-1.8 11.3-3.8s6.5-4.9 9.1-8.5c2.6-3.7 3.9-8.6 3.9-14.8 0-4.8-.9-9.2-2.8-13.2-1.8-4-3.9-7.7-6.1-11-2.2-3.7-4.4-7.3-6.6-11s-3.3-7.7-3.3-12.1 1.6-9.2 4.7-14.3 7.1-9.8 11.8-14c4.8-4.2 10-7.8 15.7-10.7s11.3-4.4 16.8-4.4c5.9 0 8.8 1.8 8.8 5.5-1.1 1.8-2.2 3.9-3.3 6.3-1 2.2-1.9 4.3-2.7 6.1z"/><path d="m658.3 772.4c4.9 0 9.8 1.3 14.5 3.8s8.4 6.2 11 10.9 3.9 9.7 3.9 14.8-1.3 10-3.9 14.6c-2.6 4.7-6.2 8.3-10.9 10.9s-9.6 3.9-14.7 3.9-10-1.3-14.7-3.9-8.3-6.2-10.9-10.9-3.9-9.6-3.9-14.6c0-5.1 1.3-10.1 4-14.8 2.6-4.7 6.3-8.4 11-10.9 4.9-2.6 9.7-3.8 14.6-3.8zm0 4.9c-4.1 0-8.2 1.1-12.1 3.2s-7 5.2-9.2 9.1-3.3 8.1-3.3 12.3 1.1 8.3 3.3 12.2 5.2 6.9 9.1 9.1 8 3.3 12.2 3.3 8.3-1.1 12.2-3.3 6.9-5.2 9.1-9.1 3.2-8 3.2-12.2c0-4.3-1.1-8.4-3.3-12.3s-5.3-7-9.2-9.1c-3.8-2.2-7.9-3.2-12-3.2zm-12.9 40.9v-31.7h10.9c3.7 0 6.4.3 8.1.9s3 1.6 4 3.1 1.5 3 1.5 4.6c0 2.3-.8 4.3-2.5 6.1-1.7 1.7-3.8 2.7-6.6 2.9 1.1.5 2 1 2.7 1.7 1.3 1.2 2.8 3.3 4.7 6.3l3.9 6.2h-6.2l-2.8-5c-2.2-3.9-4-6.4-5.4-7.4-.9-.7-2.3-1.1-4.1-1.1h-3v13.5h-5.2zm5.1-17.9h6.2c3 0 5-.4 6.1-1.3s1.6-2.1 1.6-3.5c0-.9-.3-1.8-.8-2.5s-1.2-1.3-2.2-1.7c-.9-.4-2.6-.5-5.1-.5h-5.8z"/><path d="m734 830.6v-50.5h-18.9v-6.8h45.4v6.8h-18.9v50.5z"/><path d="m831.5 773.4h7.6v33.1c0 5.8-.7 10.3-2 13.7s-3.7 6.1-7.1 8.3-7.9 3.2-13.4 3.2c-5.4 0-9.8-.9-13.2-2.8-3.4-1.8-5.8-4.5-7.3-8s-2.2-8.3-2.2-14.4v-33.1h7.6v33c0 5 .5 8.6 1.4 11s2.5 4.2 4.8 5.4c2.3 1.3 5 1.9 8.3 1.9 5.6 0 9.5-1.3 11.9-3.8s3.6-7.4 3.6-14.6z"/><path d="m877.4 830.6v-57.3h25.4c5.1 0 9 .5 11.6 1.5s4.8 2.8 6.4 5.4 2.4 5.5 2.4 8.6c0 4.1-1.3 7.5-3.9 10.3s-6.7 4.6-12.2 5.3c2 1 3.5 1.9 4.6 2.9 2.2 2 4.3 4.6 6.3 7.6l10 15.6h-9.5l-7.6-11.9c-2.2-3.4-4-6.1-5.5-7.9-1.4-1.8-2.7-3.1-3.8-3.8s-2.3-1.2-3.5-1.5c-.9-.2-2.3-.3-4.2-.3h-8.9v25.4h-7.6zm7.6-32h16.3c3.5 0 6.2-.4 8.1-1.1s3.4-1.9 4.5-3.4 1.5-3.3 1.5-5.1c0-2.7-1-4.9-2.9-6.7-2-1.7-5.1-2.6-9.3-2.6h-18.2z"/><path d="m960.3 830.6v-57.3h7.6v28.4l28.4-28.4h10.3l-24 23.2 25.1 34.1h-10l-20.4-29-9.4 9.1v19.8h-7.6z"/><path d="m1040.9 830.6v-57.3h7.6v57.3z"/><path d="m1084.9 812.2 7.1-.6c.3 2.9 1.1 5.2 2.4 7.1 1.2 1.8 3.2 3.3 5.8 4.5 2.6 1.1 5.5 1.7 8.8 1.7 2.9 0 5.4-.4 7.7-1.3 2.2-.9 3.9-2 4.9-3.5 1.1-1.5 1.6-3.1 1.6-4.9s-.5-3.4-1.6-4.7c-1-1.3-2.8-2.5-5.2-3.4-1.5-.6-4.9-1.5-10.2-2.8s-8.9-2.5-11.1-3.6c-2.7-1.4-4.8-3.2-6.1-5.3s-2-4.5-2-7.1c0-2.9.8-5.6 2.5-8.1s4-4.4 7.2-5.7 6.7-2 10.5-2c4.2 0 8 .7 11.2 2.1s5.7 3.4 7.5 6c1.7 2.7 2.7 5.7 2.8 9l-7.3.5c-.4-3.6-1.7-6.4-4-8.2s-5.6-2.8-10-2.8c-4.6 0-7.9.8-10 2.5s-3.1 3.7-3.1 6.1c0 2.1.7 3.8 2.2 5.1s5.3 2.7 11.4 4.1c6.2 1.4 10.4 2.6 12.7 3.7 3.3 1.5 5.8 3.5 7.4 5.8 1.6 2.4 2.4 5.1 2.4 8.1s-.9 5.9-2.6 8.6-4.3 4.8-7.5 6.3c-3.3 1.5-6.9 2.2-11 2.2-5.2 0-9.5-.8-13-2.3s-6.2-3.8-8.2-6.8-3.1-6.5-3.2-10.3z"/><path d="m1166.6 830.6v-57.3h7.6v23.5h29.8v-23.5h7.6v57.3h-7.6v-27h-29.8v27z"/><path d="m1341 824.5c3.5 2.4 6.8 4.2 9.7 5.3l-2.2 5.3c-4.1-1.5-8.2-3.8-12.3-7-4.2 2.4-8.9 3.6-14.1 3.6s-9.9-1.2-14.1-3.8-7.5-6-9.7-10.5-3.4-9.6-3.4-15.3 1.1-10.8 3.4-15.4 5.6-8.2 9.8-10.6 9-3.6 14.2-3.6c5.3 0 10.1 1.3 14.3 3.8s7.5 6 9.7 10.5 3.3 9.6 3.3 15.3c0 4.7-.7 9-2.1 12.7s-3.6 6.9-6.5 9.7zm-16.7-9.7c4.4 1.2 8 3 10.8 5.5 4.5-4.1 6.7-10.2 6.7-18.3 0-4.6-.8-8.7-2.4-12.1s-3.9-6.2-6.9-8.1-6.4-2.9-10.2-2.9c-5.7 0-10.3 1.9-14.1 5.8s-5.6 9.6-5.6 17.3c0 7.4 1.8 13.2 5.5 17.1s8.4 6 14.1 6c2.7 0 5.3-.5 7.7-1.5-2.4-1.5-4.9-2.6-7.5-3.3z"/><path d="m1423 773.4h7.6v33.1c0 5.8-.7 10.3-2 13.7s-3.7 6.1-7.1 8.3-7.9 3.2-13.4 3.2c-5.4 0-9.8-.9-13.2-2.8-3.4-1.8-5.8-4.5-7.3-8s-2.2-8.3-2.2-14.4v-33.1h7.6v33c0 5 .5 8.6 1.4 11s2.5 4.2 4.8 5.4c2.3 1.3 5 1.9 8.3 1.9 5.6 0 9.5-1.3 11.9-3.8s3.6-7.4 3.6-14.6z"/><path d="m1462.5 830.6 22-57.3h8.2l23.4 57.3h-8.6l-6.7-17.3h-23.9l-6.3 17.3zm16.5-23.5h19.4l-6-15.9c-1.8-4.8-3.2-8.8-4.1-11.9-.7 3.7-1.8 7.3-3.1 10.9z"/><path d="m1547.4 830.6v-57.3h7.6v50.5h28.2v6.8z"/><path d="m1619.1 830.6v-57.3h7.6v57.3z"/><path d="m1680.3 830.6v-50.5h-18.9v-6.8h45.4v6.8h-18.9v50.5z"/><path d="m1756.3 830.6v-24.3l-22.1-33h9.2l11.3 17.3c2.1 3.2 4 6.5 5.8 9.7 1.7-3 3.8-6.4 6.2-10.1l11.1-16.8h8.8l-22.9 33v24.3h-7.4z"/></svg>