<svg viewBox="0 0 1834.4 839.8" xmlns="http://www.w3.org/2000/svg"><g fill="#843b68"><path d="m405 721.9h-68c17-9.8 32.9-23.7 47.1-37.9a226.67 226.67 0 0 0 29.2-36 222.83 222.83 0 0 1 -101.4 37.1 232.63 232.63 0 0 1 -23.5 1.2 224.26 224.26 0 0 1 -158.9-65.9c-76.3-76.3-87.2-195.6-28.2-283.4a220.42 220.42 0 0 0 -35.4 28.9 224.88 224.88 0 0 0 0 318.1c42.5 42.5 99 67.9 159.1 67.9h180a15 15 0 1 1 0 30h-90a15 15 0 0 0 0 30h90a45 45 0 1 0 0-90z"/><path d="m447.6 493.5c-.6-4.1-1-8.2-1.8-12.3-75.4-41.6-175.8-31.4-240.7 43.7 12.4 14.3 23.9 25.6 45.4 38.8 2.1-2.3 4.1-4.8 6.4-7 51.1-51.2 122.4-72.8 190.7-63.2z"/><path d="m162.3 440.3a195.51 195.51 0 0 0 24.4 60.1c58.5-63.8 141.7-86.3 221.4-66a194.67 194.67 0 0 0 -245.8 5.9z"/><path d="m134.5 342.3c-61.5 79.2-51.8 188.8 16.2 256.8a194.66 194.66 0 0 0 256.6 16.7 223.36 223.36 0 0 1 -214.1-59.1c-50-50-74.7-124.5-62.9-195.9 1-6.3 2.7-12.4 4.2-18.5z"/><path d="m278 577.9c53.9 22.4 115.7 19 167.8-9.6a224.06 224.06 0 0 0 4.2-43.4v-.4c-61.2-10.8-125.9 7.4-172 53.4z"/><path d="m384.1 365.8a225.06 225.06 0 0 0 -202.4-61.7 183.93 183.93 0 0 0 -23.9 101.6 223.09 223.09 0 0 1 255.6-3.9 233 233 0 0 0 -29.3-36z"/><path d="m753 545.9 88.7-149.1q21.9-36.45 21.9-51.8c0-9.3-3.9-17.8-11.6-25.6s-21.6-11.6-41.5-11.6v-15.3h147.1v15.3q-30.6 4.35-49.3 22.7t-48 66.9l-101 168.5v59.8q0 57.45 3.5 73.2c2.3 10.5 7.3 17.9 14.9 22.2s22.6 6.5 45 6.5v15.3h-191.9v-15.3h7.3c19.3 0 32.6-2.4 40-7.3s12.1-12.5 14.1-22.7 3-34.3 3-71.9v-55.4l-112.2-184.4q-34.2-55.8-45.5-66.6c-7.5-7.2-21-11-40.5-11.5v-15.3h182.6v15.3c-34.1 0-51.1 7.8-51.1 23.2 0 6.2 5.6 18.6 16.9 37.2z"/><path d="m1187.6 693h12.3q-3 56.85-55.8 56.8-22.65 0-35.7-12c-8.7-8-14.4-19.8-17.1-35.5-22.1 15.7-42.3 27.6-60.6 35.5s-34.6 12-49 12q-27.6 0-47.5-15.9t-19.9-42.2q0-34.2 33.4-59.8c22.2-17 53-33.6 92.1-49.8l51.5-20.9v-13.3c0-18.8-1.2-32.4-3.7-40.8s-8.7-15.9-18.9-22.6-23.6-10-40.2-10q-49.8 0-55.4 33.2-5.25 33.9-27.9 33.9c-13.5 0-20.3-6.4-20.3-19.3q0-18.9 26.9-40.7t83.7-21.7q42.15 0 65.4 13.3c15.5 8.9 25.7 18.9 30.7 30.2s7.5 28.6 7.5 51.8v109.9c0 25.7 1.3 42.2 4 49.5s8.4 11 17.3 11c14.6 0 23.7-10.9 27.2-32.6zm-96.3-116.2-36.2 14.6q-85.65 34.8-85.7 87.7c0 13.9 3.7 25.2 11 33.7s16.8 12.8 28.6 12.8c10.4 0 22.5-3.4 36.2-10.3s29.1-17.2 46.2-30.9v-107.6z"/><path d="m1320.1 529.3a113.52 113.52 0 0 1 36.7-49.5c16.9-13.3 33.5-19.9 49.6-19.9 14.6 0 26.1 4.5 34.5 13.6s12.6 18.4 12.6 27.9a23.61 23.61 0 0 1 -6.5 16.6 20.94 20.94 0 0 1 -15.8 7q-16.65 0-25.2-24.6c-4-11.1-10-16.6-17.9-16.6-9.5 0-20.9 6.5-34.2 19.4s-21.8 26.4-25.6 40.3-5.6 33.1-5.6 57.4v48.5c0 29 .4 47.3 1.2 54.8s3.9 13.3 9.5 17.3 15.4 6 29.6 6h9.3v15.3h-144.4v-15.3h7c13.3 0 22.7-1.8 28.4-5.5a21.81 21.81 0 0 0 10.1-15.4c1.1-6.6 1.7-25.7 1.7-57.1v-76.7c0-29.2-.4-47.5-1.2-55s-3.9-13.2-9.5-17.3-15.4-6.1-29.6-6.1h-7v-14.9c20.8-2.4 48-9 81.7-19.6 6.4 17.5 9.9 40.7 10.6 69.4z"/><path d="m1566.8 460h9q7.65 20.55 8.6 56.1 23.85-28.2 50.1-42.2a115 115 0 0 1 54.8-13.9q32.55 0 53.3 13.6t26.7 33.4q6 19.8 6 57.6v85c0 31.4.5 50.6 1.7 57.4a20.62 20.62 0 0 0 10.5 15.4q8.85 5.1 32.4 5.1v15.3h-139.1v-15.3h6.3c15.9 0 26.3-2.3 31.2-7a25.79 25.79 0 0 0 8.3-16.3c.7-6.2 1-24.5 1-54.8v-87.7c0-21.5-1.1-36.8-3.2-46s-7.8-17.3-16.9-24.4-20.9-10.6-35-10.6q-24.3 0-46.3 14.4c-14.7 9.6-28.6 24.1-41.7 43.3v110.9c0 31.4.6 50.6 1.8 57.4a21.26 21.26 0 0 0 10.6 15.4q8.85 5.1 32.7 5.1v15.3h-137.5v-15.3c15.3 0 25.9-1.5 31.9-4.6a20.23 20.23 0 0 0 11.1-14.1c1.4-6.3 2.2-26.1 2.2-59.3v-81q0-47.55-1.8-57.6a21.46 21.46 0 0 0 -10.6-15.3q-8.85-5.1-32.7-5.1v-15.3c24.2-2.3 49.1-7.4 74.6-14.9z"/><path d="m1155.8 202.9a42.61 42.61 0 0 0 -9.9 4.1 21.25 21.25 0 0 0 -8.2 7.4q-12.6 17.55-24.5 36.9c-7.9 12.8-15.5 25.7-22.8 38.5h68.2c1.1.7 1.7 1.5 1.7 2.2a2 2 0 0 1 -1.1 1.7q-4.35 0-13.2.3c-5.9.2-12.3.5-19.2.8s-14.1.7-21.5 1.1-13.8.7-19.2 1.1q-15.45 27.45-23.7 46.8c-5.5 12.8-8.2 24-8.2 33.5 0 13.2 6.1 19.8 18.2 19.8 5.9 0 12.6-1.6 20.1-4.7a166.58 166.58 0 0 0 23.9-12.4q1.65-1.65 3.3.3c1.1 1.3.7 2.3-1.1 3-12.5 8.1-24 13.9-34.7 17.6a98.19 98.19 0 0 1 -32.5 5.5 23.91 23.91 0 0 1 -15.4-5.2c-4.4-3.5-6.6-9.4-6.6-17.9 0-7.3 3.3-18.2 9.9-32.5s16.3-31.9 29.2-52.8c-4.4.4-9.8.8-16.2 1.4s-10.2.8-11.3.8c-1.8 0-2.8-.7-2.8-2.2a27.67 27.67 0 0 1 7.1-7.7l28-.5c3.3-5.5 7-11.6 11-18.4s8.1-13.6 12.1-20.3 8.2-13.4 12.4-19.8 8-12.4 11.3-17.9q6-2.7 16.8-7.2c7.2-2.9 13.5-5.3 19-7.1a2 2 0 0 1 1.7 1.4c.2.9-.3 1.7-1.8 2.4z"/><path d="m1495.2 41.2a83.37 83.37 0 0 1 -.8 13.2 25.07 25.07 0 0 1 -1.6 6c-.6 1.1-1.1 1.4-1.7.8a2.36 2.36 0 0 1 -.8-1.9 39.64 39.64 0 0 0 -1.9-10.5 32.55 32.55 0 0 0 -7.7-12.9c-3.9-4.2-9.3-7.9-16.2-11s-15.9-4.7-26.9-4.7a113.77 113.77 0 0 0 -29.4 4.1q-15.15 4.2-32.7 15.9t-37.7 32.7q-20.1 20.85-43.7 54.2t-51.4 80.8q-27.75 47.55-60.8 112.5c2.6-2.2 6.6-5.5 12.1-9.9s11.6-8.8 18.2-13.2 13-8.2 19.2-11.5 11.5-5 15.9-5c3.3 0 5 1.3 5 3.9 0 2.2-1.7 5.5-5 9.9-2.9 4.4-6.8 10.5-11.5 18.2s-9.4 16-14 24.8a264.15 264.15 0 0 0 -11.8 25.8c-3.3 8.4-5 15.2-5 20.4 0 5.9 1.5 10.3 4.4 13.2s7 4.4 12.1 4.4c8.4 0 20.3-5.5 35.8-16.5s33-29.7 52.8-56.1a3.31 3.31 0 0 1 2.2-1.1c.7 0 1.1.7 1.1 2.2a267 267 0 0 1 -24.5 29.7 340.56 340.56 0 0 1 -28.6 27 151.59 151.59 0 0 1 -29.2 19.5c-9.7 5-18.6 7.4-26.7 7.4-6.2 0-11.2-1.7-14.9-5.2s-5.5-8.3-5.5-14.6c0-5.9 2-13.4 6.1-22.5s8.5-18.4 13.5-27.8 9.4-18 13.5-25.9 6.1-13.5 6.1-16.8c0-1.8-.6-2.8-1.7-2.8-3.3 0-9.3 3.1-17.9 9.3s-19.3 18-32.2 35.2c-5.1 9.2-10.5 18.7-16 28.6s-10.3 18.7-14.3 26.4c-2.9 5.9-5.7 8.8-8.2 8.8a25.74 25.74 0 0 1 -7.1-1.4c-2.9-.9-4.4-2.7-4.4-5.2a12.86 12.86 0 0 1 1.7-6.1q23.1-41.85 45.1-78.9c14.7-24.8 29.5-49 44.5-72.9q26.4-41.25 54.7-84.1a838.33 838.33 0 0 1 58-78.1c19.8-23.5 39.9-42.6 60.2-57.5 20.2-14.6 40.6-22 61.2-22a69.76 69.76 0 0 1 16 1.9 57.4 57.4 0 0 1 15.7 6.3 33.52 33.52 0 0 1 12.1 12.4c3 5.3 4.6 12.2 4.6 20.6z"/><path d="m1410.5 331.6a254.71 254.71 0 0 1 -30.2 32.5 270.73 270.73 0 0 1 -31.3 24.8 99.53 99.53 0 0 1 -22.5 11 65.82 65.82 0 0 1 -20.9 3.8c-2.2 0-4.8-.2-7.7-.5a20.12 20.12 0 0 1 -8-2.8 19.52 19.52 0 0 1 -6-5.8c-1.7-2.4-2.5-5.6-2.5-9.6 0-4.8 1.8-11.3 5.5-19.5s8-16.8 12.9-25.6 9.9-17.2 14.9-25.3 8.9-14.1 11.8-18.2c1.8-2.9 5-5.4 9.6-7.4s7.6-3 9.1-3c1.8 0 2.8.5 2.8 1.7a12.48 12.48 0 0 1 -.8 3.3 9.88 9.88 0 0 1 -1.9 3.3c-4.8 7.3-9.6 15.4-14.6 24.2s-9.4 17.3-13.5 25.6a209.82 209.82 0 0 0 -9.6 22.8q-3.6 10.5-3.6 16.5 0 6.6 3.6 9.6t9.6 3c7.3 0 15.4-2.5 24.2-7.4a181.21 181.21 0 0 0 26.1-17.9 252.29 252.29 0 0 0 23.9-22 209.69 209.69 0 0 0 17-19.8c1.8-1.8 2.8-2.3 3-1.4a9.75 9.75 0 0 1 -.9 4.1zm-24.8-122.6c0 4.4-1.9 8.8-5.8 13.2s-8.2 6.6-12.9 6.6q-6.6 0-6.6-6.6c0-4.8 1.7-9.3 5.2-13.8s7.8-6.6 12.9-6.6q7.2 0 7.2 7.2z"/><path d="m1461.6 303c-1.1 1.8-2 2-2.8.6q-3.3-7.2-13.8-7.2a31.15 31.15 0 0 0 -15.4 4.4 14.27 14.27 0 0 0 -7.7 13.2 16 16 0 0 0 2.8 8.8c1.8 2.9 4.4 6.8 7.7 11.5 2.9 4.4 5.7 8.8 8.2 13.2a26.74 26.74 0 0 1 3.9 13.8q0 14.25-6.6 23.4a54.44 54.44 0 0 1 -15.7 14.6 58.28 58.28 0 0 1 -18.4 7.4 76.16 76.16 0 0 1 -14.8 1.9c-22.4 0-34.7-7.5-36.8-22.5 1.8-1.1 3.9-2.5 6.3-4.1a22.47 22.47 0 0 0 5.2-4.7c.7 0 1.3.7 1.6 2.2a34.93 34.93 0 0 0 10.5 17 25.64 25.64 0 0 0 18.1 7.2 90.11 90.11 0 0 0 10.5-.8 30.26 30.26 0 0 0 11.3-3.8 29.29 29.29 0 0 0 9.1-8.5c2.6-3.7 3.8-8.6 3.8-14.8a30.34 30.34 0 0 0 -2.8-13.2 76.33 76.33 0 0 0 -6-11c-2.2-3.7-4.4-7.3-6.6-11a23.16 23.16 0 0 1 -3.3-12.1c0-4.4 1.6-9.2 4.7-14.3a62.29 62.29 0 0 1 11.8-14 76.4 76.4 0 0 1 15.7-10.7 37 37 0 0 1 16.8-4.4c5.9 0 8.8 1.8 8.8 5.5a60.42 60.42 0 0 0 -3.3 6.3c-1.1 2.2-2 4.3-2.8 6.1z"/><path d="m1718.5 331.6a254.71 254.71 0 0 1 -30.2 32.5 270.73 270.73 0 0 1 -31.3 24.8 96.24 96.24 0 0 1 -22.6 11 65.82 65.82 0 0 1 -20.9 3.8c-2.2 0-4.8-.2-7.7-.5a20.12 20.12 0 0 1 -8-2.8 21 21 0 0 1 -6.1-5.8 17.05 17.05 0 0 1 -2.5-9.6c0-4.8 1.8-11.3 5.5-19.5s8-16.8 12.9-25.6 9.9-17.2 14.8-25.3 8.9-14.1 11.8-18.2c1.8-2.9 5-5.4 9.6-7.4s7.6-3 9.1-3c1.8 0 2.8.5 2.8 1.7a12.48 12.48 0 0 1 -.8 3.3 8.44 8.44 0 0 1 -1.9 3.3c-4.8 7.3-9.6 15.4-14.6 24.2s-9.4 17.3-13.5 25.6a209.82 209.82 0 0 0 -9.6 22.8q-3.6 10.5-3.6 16.5 0 6.6 3.6 9.6t9.6 3c7.3 0 15.4-2.5 24.2-7.4a181.21 181.21 0 0 0 26.1-17.9 252.29 252.29 0 0 0 23.9-22 229.39 229.39 0 0 0 17.1-19.8c1.8-1.8 2.8-2.3 3-1.4s0 2.3-.7 4.1zm-24.8-122.6c0 4.4-1.9 8.8-5.8 13.2s-8.2 6.6-12.9 6.6q-6.6 0-6.6-6.6c0-4.8 1.7-9.3 5.2-13.8s7.8-6.6 12.9-6.6q7.2 0 7.2 7.2z"/><path d="m1769.6 303c-1.1 1.8-2 2-2.8.6q-3.3-7.2-13.8-7.2a31.15 31.15 0 0 0 -15.4 4.4 14.27 14.27 0 0 0 -7.7 13.2 16 16 0 0 0 2.8 8.8c1.8 2.9 4.4 6.8 7.7 11.5 2.9 4.4 5.7 8.8 8.2 13.2a26.62 26.62 0 0 1 3.8 13.8q0 14.25-6.6 23.4a54.44 54.44 0 0 1 -15.7 14.6 57.36 57.36 0 0 1 -18.4 7.4 76.11 76.11 0 0 1 -14.9 1.9c-22.4 0-34.6-7.5-36.8-22.5 1.8-1.1 3.9-2.5 6.3-4.1a22.47 22.47 0 0 0 5.2-4.7c.7 0 1.3.7 1.7 2.2a35.49 35.49 0 0 0 10.4 17 25.7 25.7 0 0 0 18.2 7.2 90.11 90.11 0 0 0 10.5-.8 30.26 30.26 0 0 0 11.3-3.8 29.29 29.29 0 0 0 9.1-8.5c2.6-3.7 3.9-8.6 3.9-14.8a30.34 30.34 0 0 0 -2.8-13.2 76.59 76.59 0 0 0 -6.1-11c-2.2-3.7-4.4-7.3-6.6-11a23.16 23.16 0 0 1 -3.3-12.1c0-4.4 1.6-9.2 4.7-14.3a62.29 62.29 0 0 1 11.8-14 76.4 76.4 0 0 1 15.7-10.7 37 37 0 0 1 16.8-4.4c5.9 0 8.8 1.8 8.8 5.5a60.42 60.42 0 0 0 -3.3 6.3c-1 2.2-1.9 4.3-2.7 6.1z"/><path d="m658.3 772.4a30.78 30.78 0 0 1 14.5 3.8 26.86 26.86 0 0 1 11 10.9 30.33 30.33 0 0 1 3.9 14.8 29.32 29.32 0 0 1 -3.9 14.6 27.23 27.23 0 0 1 -10.9 10.9 29.65 29.65 0 0 1 -29.4 0 27.23 27.23 0 0 1 -10.9-10.9 29.87 29.87 0 0 1 -3.9-14.6 29.4 29.4 0 0 1 4-14.8 26.86 26.86 0 0 1 11-10.9 30.59 30.59 0 0 1 14.6-3.8zm0 4.9a25.47 25.47 0 0 0 -12.1 3.2 23 23 0 0 0 -9.2 9.1 25 25 0 0 0 -3.3 12.3 24.59 24.59 0 0 0 3.3 12.2 23.41 23.41 0 0 0 9.1 9.1 24.2 24.2 0 0 0 24.4 0 23.41 23.41 0 0 0 9.1-9.1 24.71 24.71 0 0 0 -.1-24.5 23 23 0 0 0 -9.2-9.1 23.74 23.74 0 0 0 -12-3.2zm-12.9 40.9v-31.7h10.9a26.41 26.41 0 0 1 8.1.9 7.7 7.7 0 0 1 4 3.1 8.12 8.12 0 0 1 1.5 4.6 8.55 8.55 0 0 1 -2.5 6.1 9.87 9.87 0 0 1 -6.6 2.9 8.92 8.92 0 0 1 2.7 1.7 33.68 33.68 0 0 1 4.7 6.3l3.9 6.2h-6.2l-2.8-5c-2.2-3.9-4-6.4-5.4-7.4a6.68 6.68 0 0 0 -4.1-1.1h-3v13.5h-5.2zm5.1-17.9h6.2c3 0 5-.4 6.1-1.3a4.31 4.31 0 0 0 1.6-3.5 4.38 4.38 0 0 0 -.8-2.5 4.83 4.83 0 0 0 -2.2-1.7c-.9-.4-2.6-.5-5.1-.5h-5.8z"/><path d="m734 830.6v-50.5h-18.9v-6.8h45.4v6.8h-18.9v50.5z"/><path d="m831.5 773.4h7.6v33.1c0 5.8-.7 10.3-2 13.7a17.17 17.17 0 0 1 -7.1 8.3c-3.4 2.2-7.9 3.2-13.4 3.2s-9.8-.9-13.2-2.8a15.81 15.81 0 0 1 -7.3-8c-1.5-3.5-2.2-8.3-2.2-14.4v-33.1h7.6v33c0 5 .5 8.6 1.4 11a9.78 9.78 0 0 0 4.8 5.4 16.44 16.44 0 0 0 8.3 1.9c5.6 0 9.5-1.3 11.9-3.8s3.6-7.4 3.6-14.6z"/><path d="m877.4 830.6v-57.3h25.4c5.1 0 9 .5 11.6 1.5a12.86 12.86 0 0 1 6.4 5.4 16.17 16.17 0 0 1 2.4 8.6 14.52 14.52 0 0 1 -3.9 10.3c-2.6 2.8-6.7 4.6-12.2 5.3a20.4 20.4 0 0 1 4.6 2.9 41.06 41.06 0 0 1 6.3 7.6l10 15.6h-9.5l-7.6-11.9a89.37 89.37 0 0 0 -5.5-7.9 16.8 16.8 0 0 0 -3.8-3.8 12 12 0 0 0 -3.5-1.5 21.21 21.21 0 0 0 -4.2-.3h-8.9v25.4h-7.6zm7.6-32h16.3a24.22 24.22 0 0 0 8.1-1.1 9.67 9.67 0 0 0 4.5-3.4 8.48 8.48 0 0 0 1.5-5.1 8.85 8.85 0 0 0 -2.9-6.7c-2-1.7-5.1-2.6-9.3-2.6h-18.2z"/><path d="m960.3 830.6v-57.3h7.6v28.4l28.4-28.4h10.3l-24 23.2 25.1 34.1h-10l-20.4-29-9.4 9.1v19.8h-7.6z"/><path d="m1040.9 830.6v-57.3h7.6v57.3z"/><path d="m1084.9 812.2 7.1-.6a15 15 0 0 0 2.4 7.1 13.66 13.66 0 0 0 5.8 4.5 22.27 22.27 0 0 0 8.8 1.7 20.74 20.74 0 0 0 7.7-1.3 10.36 10.36 0 0 0 4.9-3.5 8 8 0 0 0 1.6-4.9 7.06 7.06 0 0 0 -1.6-4.7 11.74 11.74 0 0 0 -5.2-3.4 104.38 104.38 0 0 0 -10.2-2.8 57.18 57.18 0 0 1 -11.1-3.6 15.27 15.27 0 0 1 -6.1-5.3 13.34 13.34 0 0 1 -2-7.1 14.07 14.07 0 0 1 2.5-8.1 15.35 15.35 0 0 1 7.2-5.7 27.66 27.66 0 0 1 10.5-2 28 28 0 0 1 11.2 2.1 17.3 17.3 0 0 1 7.5 6 17.68 17.68 0 0 1 2.8 9l-7.3.5c-.4-3.6-1.7-6.4-4-8.2s-5.6-2.8-10-2.8c-4.6 0-7.9.8-10 2.5a7.53 7.53 0 0 0 -3.1 6.1 6.39 6.39 0 0 0 2.2 5.1c1.5 1.3 5.3 2.7 11.4 4.1s10.4 2.6 12.7 3.7a17.79 17.79 0 0 1 7.4 5.8 14.27 14.27 0 0 1 2.4 8.1 16 16 0 0 1 -2.6 8.6 17.32 17.32 0 0 1 -7.5 6.3 26 26 0 0 1 -11 2.2 32.89 32.89 0 0 1 -13-2.3 18.3 18.3 0 0 1 -8.2-6.8 19.28 19.28 0 0 1 -3.2-10.3z"/><path d="m1166.6 830.6v-57.3h7.6v23.5h29.8v-23.5h7.6v57.3h-7.6v-27h-29.8v27z"/><path d="m1341 824.5a47.61 47.61 0 0 0 9.7 5.3l-2.2 5.3a45.38 45.38 0 0 1 -12.3-7 27.91 27.91 0 0 1 -14.1 3.6 26.17 26.17 0 0 1 -14.1-3.8 25.21 25.21 0 0 1 -9.7-10.5 34.42 34.42 0 0 1 -3.4-15.3 33.83 33.83 0 0 1 3.4-15.4 24.58 24.58 0 0 1 9.8-10.6 28.28 28.28 0 0 1 14.2-3.6 27.54 27.54 0 0 1 14.3 3.8 24.63 24.63 0 0 1 9.7 10.5 34.39 34.39 0 0 1 3.3 15.3 36 36 0 0 1 -2.1 12.7 26.34 26.34 0 0 1 -6.5 9.7zm-16.7-9.7a26.27 26.27 0 0 1 10.8 5.5c4.5-4.1 6.7-10.2 6.7-18.3a28.4 28.4 0 0 0 -2.4-12.1 18.89 18.89 0 0 0 -6.9-8.1 19.77 19.77 0 0 0 -24.3 2.9c-3.8 3.9-5.6 9.6-5.6 17.3 0 7.4 1.8 13.2 5.5 17.1a18.72 18.72 0 0 0 14.1 6 19.94 19.94 0 0 0 7.7-1.5 27.68 27.68 0 0 0 -7.5-3.3z"/><path d="m1423 773.4h7.6v33.1c0 5.8-.7 10.3-2 13.7a17.17 17.17 0 0 1 -7.1 8.3c-3.4 2.2-7.9 3.2-13.4 3.2s-9.8-.9-13.2-2.8a15.81 15.81 0 0 1 -7.3-8c-1.5-3.5-2.2-8.3-2.2-14.4v-33.1h7.6v33c0 5 .5 8.6 1.4 11a9.78 9.78 0 0 0 4.8 5.4 16.44 16.44 0 0 0 8.3 1.9c5.6 0 9.5-1.3 11.9-3.8s3.6-7.4 3.6-14.6z"/><path d="m1462.5 830.6 22-57.3h8.2l23.4 57.3h-8.6l-6.7-17.3h-23.9l-6.3 17.3zm16.5-23.5h19.4l-6-15.9c-1.8-4.8-3.2-8.8-4.1-11.9a70.93 70.93 0 0 1 -3.1 10.9z"/><path d="m1547.4 830.6v-57.3h7.6v50.5h28.2v6.8z"/><path d="m1619.1 830.6v-57.3h7.6v57.3z"/><path d="m1680.3 830.6v-50.5h-18.9v-6.8h45.4v6.8h-18.9v50.5z"/><path d="m1756.3 830.6v-24.3l-22.1-33h9.2l11.3 17.3c2.1 3.2 4 6.5 5.8 9.7 1.7-3 3.8-6.4 6.2-10.1l11.1-16.8h8.8l-22.9 33v24.3h-7.4z"/></g></svg>