<svg version="1" xmlns="http://www.w3.org/2000/svg" width="413.333" height="413.333" viewBox="0 0 310.000000 310.000000"><path d="M138.5 1.3c-4.4.5-8.6 1.3-9.2 1.9-3.9 3.2-11.7 25.1-13.9 39.2-.7 4.7-1.3 19.8-.7 20.8.2.4 2.7-.9 5.6-2.8 9.9-6.6 25.6-13.6 38.7-17.1 5.7-1.5 6.3-1.7 12.6-2.9 8.7-1.7 46.2-.7 49.7 1.3.4.2 2 .7 3.5.9 8.9 1.6 32 11.2 39.5 16.6 1.6 1.1 3 1.8 3.3 1.5.7-.7-11.7-15.7-18.8-22.6-8.7-8.4-21.9-17.7-33.1-23.3-9.6-4.8-29-11.3-36.7-12.3-2.5-.3-5.3-.8-6.3-1.1-3.1-1-26-1-34.2-.1z"/><path d="M74 27.3C65.1 33.8 48.9 50.8 42.8 60 30.3 78.9 23 98.5 20.3 120c-1.3 10.5-.4 38.3 1.3 41.1.2.4.6 2.4 1 4.5 1.1 6.8 6.3 21.7 11.1 31.4 18.8 38.1 57.5 67.4 98.3 74.4 1.9.3 4.6.9 6 1.2 1.4.3 30.9.7 65.7.8 61.3.2 63.2.2 65.3 2.1 3.2 2.9 4.2 6.2 3 9.9-1.9 5.9-2.5 6-35.8 6.1l-30.2.1-2.7 2.6c-4.5 4.6-3.3 12.4 2.4 14.6 1.8.7 13.8 1 33.8.8 30.2-.2 31.1-.3 35.8-2.5 5.8-2.8 11.6-9.3 13.8-15.2 3.7-10.2.1-23.3-8.3-30.2-6.8-5.6-11.4-6.4-35.6-6.3-11.6.1-21.2-.1-21.2-.4 0-.3 2.9-2.4 6.3-4.7 8.7-5.9 23.1-19.6 30.7-29.3 3.6-4.5 6.7-8.6 6.9-9.1.1-.6-2.2.6-5.4 2.6-13.2 8.5-34.4 16-51 18.1-12.8 1.7-35 .9-46-1.6-11.7-2.6-31.3-9.9-37.5-13.9-1.4-.9-3.6-2.2-5-2.9-9.7-4.9-30.8-24.4-39.2-36.2-11-15.5-18.9-33-22.4-49.3-1.3-6.1-2.6-13.1-2.9-16.5-1.1-9.3-.5-28.7 1-36.2.3-1.4.8-3.9 1-5.5 2.2-12.3 10.2-32.7 16.8-42.3 1.6-2.4 2.7-4.5 2.5-4.7-.1-.1-2.8 1.6-5.8 3.8z"/><path d="M94.7 34.2c-6.4 10.2-12.5 23.6-14.2 31.3-.2.5-.8 2.8-1.3 5-.6 2.2-1.3 5.3-1.6 7-2.5 15.8-2.5 22.1-.1 40.3 1 7.6 6.2 23.3 10.8 32.5 14.5 29.1 39.1 50.1 70.5 60.2 7.7 2.5 9.1 2.7 21.2 4.4 6.7.9 25.6.7 30-.4 1.4-.3 4.2-.8 6.2-1 5.8-.8 19.4-5.3 27-9.1 12.7-6.1 26.5-15.5 18.6-12.5-6.9 2.6-35.9 4.4-45.3 2.8-1.6-.3-5-.8-7.5-1.2-9.6-1.4-26-6.8-36.8-12.1-29-14.3-51.3-37.8-64.4-67.9-3.7-8.5-6.7-17.1-7.3-20.8-.2-1.2-1.1-5.6-2-9.7-2.4-10.6-2.5-36.8-.2-47.4 1-4.4 1.5-8.1 1.3-8.3-.2-.2-2.4 2.9-4.9 6.9z"/><path d="M174 58.7c-16.6 2.9-33.3 9.7-47 19-10.4 7.2-10.3 6.9-7.3 16.6 2.2 7.5 10.9 26.7 12 26.7.3 0 4.1-3.4 8.5-7.5 9.3-8.7 24.1-18.9 34.8-23.8 8.2-3.7 21.5-8.3 27-9.3 22.2-3.9 40.8-3.9 57.3 0 3.1.7 5.7 1.2 5.7.9 0-.2-3.7-2.7-8.2-5.6-12.9-8.3-31.9-15.7-44.3-17.3-10.7-1.3-30-1.2-38.5.3z"/><path d="M211.8 97.1c-23.6 4.2-44 14.7-61.2 31.4l-7.8 7.6 2.8 3.2c4.8 5.2 11.3 11 16.7 14.9 2.9 2.1 5.7 4.2 6.4 4.8.8.7 3.2-1 8-5.6 9-8.7 22.6-18.1 34.3-23.7 11.9-5.7 21.8-8.9 38.5-12.3 4.9-1 33.5-1.3 36.6-.4 2.8.8 2.9.7 2.9-2.5 0-3.9-2.4-6-11-9.5-3-1.2-6.4-2.6-7.5-3.1-3.3-1.4-16.7-4.8-22-5.5-10.3-1.3-27-1-36.7.7zM260.8 134.5c-.1.1-3.1.5-6.4.9-11.9 1.2-30.8 7.3-41.3 13.3-10 5.7-25.1 17.3-25.1 19.3 0 1 13.4 5.8 18.5 6.5 2.2.4 5.4 1 7 1.3 1.7.4 10.4.7 19.5.6 18.6 0 27.1-1.6 43.2-8.2 11.2-4.5 12.4-5.6 13.3-12.9 1.3-10 1.4-19.3.1-19.4-.6 0-2-.3-3.1-.5-2.4-.5-25.2-1.4-25.7-.9z"/></svg>